<svg width="60" height="60" fill="none" xmlns="http://www.w3.org/2000/svg"><g clip-path="url(#clip0_3122_67)" fill="#000"><path fill-rule="evenodd" clip-rule="evenodd" d="M30 1.25a30.108 30.108 0 00-19.433 7.116A29.793 29.793 0 00.4 26.305 29.693 29.693 0 004.34 46.52a29.974 29.974 0 0016.173 12.862c1.49.277 2.052-.647 2.052-1.432 0-.785-.03-3.063-.04-5.552-8.346 1.803-10.11-3.522-10.11-3.522-1.36-3.457-3.327-4.366-3.327-4.366-2.723-1.848.203-1.813.203-1.813 3.016.212 4.6 3.077 4.6 3.077 2.673 4.56 7.02 3.24 8.729 2.47.268-1.931 1.048-3.245 1.907-3.991-6.666-.75-13.671-3.31-13.671-14.74a11.517 11.517 0 013.09-8.006c-.308-.751-1.336-3.784.293-7.903 0 0 2.519-.8 8.251 3.057a28.633 28.633 0 0115.023 0c5.727-3.858 8.241-3.057 8.241-3.057 1.635 4.11.606 7.142.298 7.903a11.492 11.492 0 013.095 8.016c0 11.455-7.02 13.98-13.696 14.715 1.073.929 2.032 2.742 2.032 5.527 0 3.991-.035 7.202-.035 8.185 0 .795.542 1.724 2.062 1.432a29.974 29.974 0 0016.174-12.864A29.693 29.693 0 0059.62 26.3 29.793 29.793 0 0049.448 8.362 30.108 30.108 0 0030.01 1.25H30z"/><path d="M11.36 44.08c-.064.148-.302.193-.496.089-.194-.104-.338-.296-.268-.45.07-.153.303-.192.497-.089.193.104.342.302.268.45zm1.218 1.348a.5.5 0 01-.616-.138c-.194-.207-.233-.494-.084-.622.149-.129.417-.07.61.138.194.208.24.494.09.623zm1.182 1.714c-.183.129-.496 0-.67-.256a.493.493 0 010-.712c.184-.123.497 0 .67.252.175.252.18.588 0 .716zm1.605 1.66c-.164.183-.497.133-.77-.114s-.338-.582-.174-.76c.164-.178.497-.129.78.113.283.242.338.583.164.761zm2.25.968c-.074.232-.412.336-.75.237-.337-.099-.561-.375-.496-.612.064-.237.407-.346.75-.237.342.108.561.37.496.612zm2.455.168c0 .242-.278.45-.636.455-.358.005-.65-.193-.65-.435s.277-.45.635-.454c.358-.005.65.187.65.434zm2.285-.38c.045.242-.204.494-.561.553-.358.06-.671-.084-.716-.321-.044-.237.214-.494.562-.558.347-.064.67.084.715.326z"/></g><defs><clipPath id="clip0_3122_67"><path fill="#fff" d="M0 0h60v60H0z"/></clipPath></defs></svg>