<svg width="30" height="30" fill="none" xmlns="http://www.w3.org/2000/svg"><g clip-path="url(#clip0_3122_57)" fill="#83F1D7"><path fill-rule="evenodd" clip-rule="evenodd" d="M15 .625a15.054 15.054 0 00-9.716 3.558A14.897 14.897 0 00.2 13.153 14.846 14.846 0 002.17 23.26a14.987 14.987 0 008.086 6.431c.745.139 1.026-.323 1.026-.716 0-.393-.015-1.531-.02-2.776-4.173.901-5.054-1.76-5.054-1.76-.68-1.73-1.664-2.184-1.664-2.184-1.362-.924.101-.906.101-.906 1.508.106 2.3 1.538 2.3 1.538 1.337 2.28 3.51 1.62 4.364 1.235.135-.966.525-1.623.954-1.996-3.333-.375-6.835-1.654-6.835-7.37a5.758 5.758 0 011.545-4.003c-.154-.375-.668-1.891.146-3.951 0 0 1.26-.4 4.126 1.529a14.316 14.316 0 017.511 0c2.864-1.93 4.12-1.53 4.12-1.53.818 2.056.304 3.572.15 3.952a5.745 5.745 0 011.547 4.009c0 5.727-3.51 6.989-6.848 7.357.537.464 1.016 1.37 1.016 2.764 0 1.995-.017 3.6-.017 4.092 0 .398.27.862 1.03.716a14.987 14.987 0 008.088-6.432A14.846 14.846 0 0029.81 13.15a14.897 14.897 0 00-5.087-8.97A15.054 15.054 0 0015.005.626H15z"/><path d="M5.68 22.04c-.032.074-.151.096-.248.044-.097-.051-.169-.148-.134-.224.035-.077.151-.097.248-.045.097.052.172.15.134.225zm.609.674a.25.25 0 01-.308-.069c-.097-.104-.117-.247-.042-.311.074-.064.208-.035.305.07.097.103.12.246.045.31zm.591.857c-.092.064-.248 0-.335-.128a.247.247 0 010-.356c.092-.062.248 0 .335.126.087.126.09.294 0 .358zm.803.83c-.082.091-.249.067-.385-.057-.137-.123-.17-.291-.087-.38.082-.089.248-.064.39.057.141.12.168.291.082.38zm1.125.484c-.038.116-.206.168-.375.119-.17-.05-.281-.188-.249-.307.033-.118.204-.172.375-.118.172.054.281.185.249.306zm1.227.085c0 .12-.14.224-.318.226-.179.003-.325-.096-.325-.217s.139-.225.318-.227c.178-.003.325.094.325.217zm1.143-.191c.022.12-.102.247-.281.276-.179.03-.335-.041-.358-.16-.022-.119.107-.247.28-.28.175-.031.336.043.358.164z"/></g><defs><clipPath id="clip0_3122_57"><path fill="#fff" d="M0 0h30v30H0z"/></clipPath></defs></svg>